<svg width="60" height="60" viewBox="0 0 60 60" fill="none" xmlns="http://www.w3.org/2000/svg">
<path d="M14.5133 42.5665C15.0442 42.5665 15.4867 43.0089 15.4867 43.5399H17.4041C17.4041 42.2715 16.5782 41.2095 15.4572 40.826V38.7021H13.5398V40.826C12.4189 41.239 11.5929 42.301 11.5929 43.5399C11.5929 45.1328 12.8908 46.4308 14.4838 46.4308C15.0147 46.4308 15.4572 46.8732 15.4572 47.4042C15.4572 47.9352 15.0147 48.3777 14.4838 48.3777C13.9528 48.3777 13.5103 47.9352 13.5103 47.4042H11.6224C11.6224 48.6726 12.4484 49.7346 13.5693 50.1181V52.242H15.5162V50.1181C16.6372 49.7051 17.4631 48.6431 17.4631 47.4042C17.4631 45.8113 16.1652 44.5134 14.5723 44.5134C14.0413 44.5134 13.5988 44.0709 13.5988 43.5399C13.5398 43.0089 13.9823 42.5665 14.5133 42.5665Z" fill="#F1A444"/>
<path d="M14.5133 34.8376C8.64306 34.8376 3.8643 39.6164 3.8643 45.4866C3.8643 51.3568 8.64306 56.1356 14.5133 56.1356C20.3835 56.1356 25.1622 51.3568 25.1622 45.4866C25.1622 39.6164 20.3835 34.8376 14.5133 34.8376ZM14.5133 54.1887C9.70501 54.1887 5.81121 50.2949 5.81121 45.4866C5.81121 40.6784 9.70501 36.7845 14.5133 36.7845C19.3215 36.7845 23.2153 40.6784 23.2153 45.4866C23.2153 50.2654 19.3215 54.1887 14.5133 54.1887Z" fill="#F1A444"/>
<path d="M49.351 39.6754C49.8886 39.6754 50.3245 39.2396 50.3245 38.702C50.3245 38.1643 49.8886 37.7285 49.351 37.7285C48.8134 37.7285 48.3776 38.1643 48.3776 38.702C48.3776 39.2396 48.8134 39.6754 49.351 39.6754Z" fill="#F1A444"/>
<path d="M30 42.5663H43.5399V36.7551H30V42.5663ZM31.9174 38.702H41.5929V40.6489H31.9174V38.702Z" fill="#F1A444"/>
<path d="M60 31.6519V24.4543L57.5811 23.6283C57.0206 21.0619 56.0472 18.6431 54.6018 16.4602L55.7227 14.1888L50.649 9.11504L48.3776 10.2065C46.1652 8.76106 43.7758 7.78761 41.1799 7.22714L40.354 4.80826H33.1563L32.3304 7.22714C30.4425 7.64012 28.6431 8.28909 26.9322 9.17404C27.0206 8.70206 27.0501 8.23009 27.0501 7.72861V6.78466H22.2419C19.4985 6.78466 17.0796 8.0531 15.4572 10.0295V9.67552V8.70206C15.4867 3.89381 11.5634 0 6.78466 0H1.9469V0.973451C1.9469 5.78171 5.84071 9.67552 10.649 9.67552H13.5398V14.8673C11.9469 12.8909 9.49852 11.6224 6.75516 11.6224H1.9469V12.5959C1.9469 17.4041 5.84071 21.2979 10.649 21.2979H13.5398V28.0826V29.056V31.0324C5.9882 31.5044 0 37.7876 0 45.4867C0 53.4808 6.51917 60 14.5133 60C17.7876 60 20.7965 58.9086 23.2153 57.0796C23.2153 57.5221 23.2153 57.9056 23.2153 58.0826C23.2153 58.6136 23.4218 59.0855 23.7758 59.4395C24.1298 59.7935 24.6313 60 25.1327 60H28.997C30.059 60 30.944 59.1445 30.944 58.0531V56.1062C30.944 55.5752 31.3864 55.1327 31.9174 55.1327H41.5929C42.1239 55.1327 42.5664 55.5752 42.5664 56.1062V58.0531C42.5664 59.115 43.4218 60 44.5133 60H48.3776C49.4395 60 50.3245 59.1445 50.3245 58.0531V55.7522C50.3245 54.2478 51.4454 53.0089 52.9499 52.8614L56.5192 52.5074C58.4956 52.3009 60 50.649 60 48.6431V43.0973C60 41.7699 59.0855 40.6195 57.7876 40.295L57.3156 40.177C56.5192 39.9705 55.9292 39.3215 55.8112 38.4956C55.7817 38.2596 55.7227 38.0236 55.6637 37.7876C56.5487 36.1062 57.1976 34.3068 57.5811 32.4484L60 31.6519ZM10.649 7.72861C7.25664 7.72861 4.42478 5.19174 3.9528 1.9174H6.78466C10.177 1.9174 13.0089 4.45428 13.4808 7.72861H10.649ZM22.2419 8.70206H25.0737C24.6018 11.9764 21.7994 14.5133 18.3776 14.5133H15.5457C16.0177 11.2389 18.8496 8.70206 22.2419 8.70206ZM10.649 19.351C7.25664 19.351 4.42478 16.8142 3.9528 13.5398H6.78466C10.177 13.5398 13.0089 16.0767 13.4808 19.351H10.649ZM51.3569 33.2153C50.9734 33.0973 50.59 32.9794 50.177 32.9499L50.118 32.6844C49.587 29.4395 46.8142 27.1091 43.5398 27.1091H42.7139L41.7404 32.9204H31.003C28.6136 32.9204 26.3717 33.6283 24.4248 34.9558C23.7168 34.3068 22.9499 33.7168 22.1239 33.1858C21.5929 31.6814 21.3274 30.118 21.2684 28.5251C24.6313 27.3156 27.0501 24.1003 27.0501 20.3245V19.351H23.9823C26.8437 15.1327 31.6224 12.5664 36.7847 12.5664C45.3097 12.5664 52.2714 19.4985 52.2714 28.0531C52.2419 29.8525 51.9174 31.5634 51.3569 33.2153ZM22.2419 21.2979H25.0737C24.6018 24.5723 21.7994 27.0796 18.3776 27.0796H15.5457C16.0177 23.8053 18.8496 21.2979 22.2419 21.2979ZM18.3776 29.0265C18.7316 29.0265 19.056 28.997 19.3805 28.9676C19.4395 30 19.587 31.003 19.7935 31.9764C18.4366 31.4454 16.9911 31.1209 15.4572 31.003V29.0265H18.3776ZM1.9469 45.4867C1.9469 38.5546 7.58112 32.9204 14.5133 32.9204C21.4454 32.9204 27.0796 38.5546 27.0796 45.4867C27.0796 52.4189 21.4454 58.0531 14.5133 58.0531C7.58112 58.0531 1.9469 52.4189 1.9469 45.4867ZM56.8437 42.0649L57.3156 42.1829C57.7581 42.3009 58.0531 42.6844 58.0531 43.1268V48.6726C58.0531 49.6755 57.3156 50.5015 56.3127 50.59L52.7434 50.944C50.2655 51.1799 48.3776 53.2743 48.3776 55.7522V58.0531H44.5133V56.1062C44.5133 54.5133 43.2153 53.2153 41.6224 53.2153H31.9469C30.354 53.2153 29.056 54.5133 29.056 56.1062V58.0531H25.1917C25.1917 57.7286 25.1917 56.8142 25.1917 55.9882C25.1917 55.7817 25.1622 55.5752 25.1327 55.3687C27.5516 52.7729 29.056 49.292 29.056 45.4867C29.056 42.0354 27.8466 38.8791 25.8112 36.3717C27.3746 35.3687 29.1445 34.8378 31.0324 34.8378H43.3923L44.3363 29.115C46.3127 29.4395 47.8761 30.9734 48.2006 33.0088L48.4956 34.8378H49.3215C51.5929 34.8378 53.5693 36.5487 53.8938 38.7906C54.1298 40.3835 55.2802 41.6814 56.8437 42.0649ZM55.7817 31.5634C55.5162 32.9499 55.1327 34.2773 54.6018 35.5457C54.1888 34.9853 53.6578 34.4838 53.0973 34.1003C53.8053 32.1829 54.1888 30.1475 54.1888 28.0826C54.1888 18.4661 46.3717 10.6785 36.7847 10.6785C30.531 10.6785 24.8083 14.0118 21.6814 19.41C19.174 19.587 16.9617 20.7965 15.4867 22.6254V21.2979V20.3245V16.4602H18.3776C21.6224 16.4602 24.4543 14.6903 25.9587 12.0354C28.1711 10.531 30.6195 9.52802 33.2743 9.05605L33.8348 8.96755L34.5723 6.81416H38.9971L39.7345 8.96755L40.295 9.05605C43.0089 9.55752 45.5162 10.59 47.7876 12.1534L48.2596 12.4779L50.295 11.4749L53.4218 14.6018L52.4189 16.6372L52.7434 17.1091C54.3068 19.351 55.3392 21.8879 55.8407 24.6018L55.9292 25.1622L58.0826 25.8997V30.3245L55.9292 31.0619L55.7817 31.5634Z" fill="#F1A444"/>
<path d="M30.9734 20.3245C29.3805 20.3245 28.0826 21.6224 28.0826 23.2153C28.0826 24.8082 29.3805 26.1062 30.9734 26.1062C32.5663 26.1062 33.8643 24.8082 33.8643 23.2153C33.8643 21.6224 32.5663 20.3245 30.9734 20.3245ZM30.9734 24.1888C30.4425 24.1888 30 23.7463 30 23.2153C30 22.6843 30.4425 22.2419 30.9734 22.2419C31.5044 22.2419 31.9469 22.6843 31.9469 23.2153C31.9469 23.7463 31.5044 24.1888 30.9734 24.1888Z" fill="#F1A444"/>
<path d="M38.7021 20.3245C37.1092 20.3245 35.8112 21.6224 35.8112 23.2153C35.8112 24.8082 37.1092 26.1062 38.7021 26.1062C40.295 26.1062 41.5929 24.8082 41.5929 23.2153C41.5929 21.6224 40.295 20.3245 38.7021 20.3245ZM38.7021 24.1888C38.1711 24.1888 37.7286 23.7463 37.7286 23.2153C37.7286 22.6843 38.1711 22.2419 38.7021 22.2419C39.2331 22.2419 39.6755 22.6843 39.6755 23.2153C39.6755 23.7463 39.2331 24.1888 38.7021 24.1888Z" fill="#F1A444"/>
<path d="M43.5398 23.2153C43.5398 24.8082 44.8378 26.1062 46.4307 26.1062C48.0236 26.1062 49.3215 24.8082 49.3215 23.2153C49.3215 21.6224 48.0236 20.3245 46.4307 20.3245C44.8378 20.3245 43.5398 21.6224 43.5398 23.2153ZM47.4041 23.2153C47.4041 23.7463 46.9617 24.1888 46.4307 24.1888C45.8997 24.1888 45.4572 23.7463 45.4572 23.2153C45.4572 22.6843 45.8997 22.2419 46.4307 22.2419C46.9617 22.2419 47.4041 22.6843 47.4041 23.2153Z" fill="#F1A444"/>
</svg>
