<svg width="53" height="53" viewBox="0 0 53 53" fill="none" xmlns="http://www.w3.org/2000/svg">
<g clip-path="url(#clip0_2_241)">
<path d="M3.27066 6.76977C3.27066 8.70032 4.8416 10.2705 6.77309 10.2705C8.70458 10.2705 10.2755 8.70032 10.2755 6.76977C10.2755 4.83922 8.67882 3.26904 6.77309 3.26904C4.86736 3.26904 3.27066 4.83922 3.27066 6.76977ZM6.77309 4.81348C7.85472 4.81348 8.70458 5.68866 8.70458 6.74403C8.70458 7.7994 7.82897 8.70032 6.77309 8.70032C5.71721 8.70032 4.81585 7.82514 4.81585 6.76977C4.81585 5.68866 5.69146 4.81348 6.77309 4.81348Z" fill="#F1A444"/>
<path d="M27.3241 26.1269C27.3241 28.3406 29.1268 30.1424 31.3416 30.1424C33.5564 30.1424 35.3591 28.3406 35.3591 26.1269C35.3591 23.9132 33.5564 22.1113 31.3416 22.1113C29.1268 22.1113 27.3241 23.9132 27.3241 26.1269ZM33.7881 26.1269C33.7881 27.4911 32.6808 28.5722 31.3416 28.5722C30.0024 28.5722 28.895 27.4654 28.895 26.1269C28.895 24.7884 30.0024 23.6815 31.3416 23.6815C32.6808 23.6815 33.7881 24.7626 33.7881 26.1269Z" fill="#F1A444"/>
<path d="M17.3061 13.1021C16.8683 13.1021 16.5335 13.4624 16.5335 13.8743V14.8524L13.778 12.1239C13.4689 11.815 12.9796 11.815 12.6706 12.1239C12.3615 12.4328 12.3615 12.9219 12.6706 13.2308L15.4004 15.9593H14.4475C14.0097 15.9593 13.6749 16.3196 13.6749 16.7315C13.6749 17.1691 14.0355 17.5037 14.4475 17.5037H15.4262L13.2629 19.6917V18.6878C13.2629 18.2502 12.9024 17.9156 12.4903 17.9156C12.0525 17.9156 11.7177 18.2759 11.7177 18.6878V19.6659L8.96212 16.9374C8.65308 16.6285 8.16377 16.6285 7.85473 16.9374C7.5457 17.2463 7.5457 17.7354 7.85473 18.0443L10.5846 20.7728H9.6317C9.1939 20.7728 8.85911 21.1331 8.85911 21.545C8.85911 21.9826 9.21965 22.3172 9.6317 22.3172H10.6103L7.85473 25.0715C7.5457 25.3804 7.5457 25.8694 7.85473 26.1783L9.81197 28.1346C10.121 28.4435 10.6103 28.4435 10.9194 28.1346L11.4859 27.5683L12.3358 28.4177L9.88923 30.8889C9.5802 31.1977 9.5802 31.6868 9.88923 31.9957L12.8251 34.9301C13.1341 35.239 13.6234 35.239 13.9325 34.9301L15.4519 33.4114V47.9292H12.4903C11.0481 47.9292 9.88923 49.0875 9.88923 50.529V52.2279C9.88923 52.6654 10.2498 53.0001 10.6618 53.0001H52.0214C52.4592 53.0001 52.794 52.6397 52.794 52.2279V50.529C52.794 49.0875 51.6351 47.9292 50.1929 47.9292H47.2571V33.4114L48.7765 34.9301C49.0855 35.239 49.5749 35.239 49.8839 34.9301L52.8198 31.9957C53.1288 31.6868 53.1288 31.1977 52.8198 30.8889L47.2828 25.3546V18.5076C47.2828 18.07 46.9223 17.7354 46.5102 17.7354C46.0982 17.7354 45.7376 18.0958 45.7376 18.5076V23.7844L41.9777 20.1035V14.1574H45.6604V14.9039C45.6604 15.3415 46.0209 15.6761 46.433 15.6761C46.845 15.6761 47.2056 15.3158 47.2056 14.9039V13.3852C47.2056 12.9476 46.845 12.613 46.433 12.613H41.2051C40.7673 12.613 40.4325 12.9734 40.4325 13.3852V18.5591L31.8824 10.0132C31.5734 9.7043 31.0841 9.7043 30.775 10.0132L28.4315 12.3556L27.5817 11.5061L28.1482 10.9398C28.4573 10.631 28.4573 10.1419 28.1482 9.833L26.191 7.87671C25.8819 7.56782 25.3926 7.56782 25.0836 7.87671L22.8946 10.0647V9.08652C22.8946 8.64893 22.534 8.3143 22.122 8.3143C21.6842 8.3143 21.3494 8.67467 21.3494 9.08652V10.0647L18.5938 7.33616C18.2848 7.02727 17.7955 7.02727 17.4864 7.33616C17.1774 7.64505 17.1774 8.13412 17.4864 8.44301L20.2163 11.1715H19.2376C18.7998 11.1715 18.465 11.5319 18.465 11.9437C18.465 12.3813 18.8256 12.716 19.2376 12.716H20.2163L18.0787 14.8782V13.9C18.0787 13.4624 17.7182 13.1021 17.3061 13.1021ZM12.5933 26.4615L13.3144 25.7407L14.1643 26.5902L13.4432 27.3109L12.5933 26.4615ZM51.2231 50.529V51.4556H11.4344V50.529C11.4344 49.9369 11.898 49.4736 12.4903 49.4736H50.1672C50.7595 49.4736 51.2231 49.9369 51.2231 50.529ZM45.6861 47.9034H30.6205V47.1827C30.6205 46.7451 30.26 46.4105 29.8479 46.4105C29.4359 46.4105 29.0753 46.7708 29.0753 47.1827V47.9034H21.4266V33.6688H29.0753V38.1735C27.6589 37.7359 26.2425 38.7912 26.2425 40.2584C26.2425 41.7257 27.6589 42.781 29.0753 42.3434V43.5533C29.0753 43.9908 29.4359 44.3255 29.8479 44.3255C30.26 44.3255 30.6205 43.9651 30.6205 43.5533V32.8966C30.6205 32.459 30.26 32.1244 29.8479 32.1244H20.6541C20.2163 32.1244 19.8815 32.4848 19.8815 32.8966V47.9034H16.9971V31.8413L31.3416 17.5037L45.6861 31.8413V47.9034ZM29.0496 40.2842C29.0496 40.6446 28.7663 40.9277 28.4058 40.9277C28.0452 40.9277 27.7619 40.6446 27.7619 40.2842C27.7619 39.9238 28.0452 39.6407 28.4058 39.6407C28.7663 39.6407 29.0496 39.9238 29.0496 40.2842ZM31.3416 11.6348L51.12 31.4037L49.2916 33.2313L31.8824 15.8306C31.5734 15.5217 31.0841 15.5217 30.775 15.8306L13.3659 33.2313L11.5374 31.4037L23.7959 19.1511C24.105 18.8422 24.105 18.3532 23.7959 18.0443C23.4869 17.7354 22.9976 17.7354 22.6886 18.0443L15.2716 25.5091L14.4218 24.6339L24.6458 14.4148L25.4956 15.29L25.3154 15.4702C25.0063 15.7791 25.0063 16.2682 25.3154 16.5771C25.6244 16.8859 26.1137 16.8859 26.4228 16.5771C27.0151 15.9593 31.0068 11.9695 31.3416 11.6348ZM27.3241 13.4367L26.603 14.1574L25.7532 13.308L26.4743 12.5873L27.3241 13.4367ZM25.6244 9.52411L26.4743 10.3736L10.3528 26.4872L9.50294 25.6378L25.6244 9.52411Z" fill="#F1A444"/>
<path d="M7.54568 1.41574V0.77222C7.54568 0.334628 7.18513 0 6.77308 0C6.33528 0 6.00049 0.360369 6.00049 0.77222V1.41574C6.00049 1.85333 6.36103 2.18796 6.77308 2.18796C7.18513 2.18796 7.54568 1.85333 7.54568 1.41574Z" fill="#F1A444"/>
<path d="M10.4558 1.98191L9.99222 2.44524C9.68318 2.75413 9.68318 3.2432 9.99222 3.55209C10.3013 3.83524 10.7906 3.83524 11.0738 3.52635L11.5374 3.08876C11.8464 2.77987 11.8464 2.2908 11.5374 1.98191C11.2284 1.67302 10.7391 1.67302 10.4558 1.98191Z" fill="#F1A444"/>
<path d="M12.7478 5.97192H12.104C11.6662 5.97192 11.3314 6.33229 11.3314 6.74414C11.3314 7.18173 11.6919 7.51636 12.104 7.51636H12.7478C13.1856 7.51636 13.5204 7.15599 13.5204 6.74414C13.5204 6.33229 13.1856 5.97192 12.7478 5.97192Z" fill="#F1A444"/>
<path d="M11.5374 11.5317C11.8464 11.2228 11.8464 10.7338 11.5374 10.4249L11.0738 9.98728C10.7906 9.67839 10.3013 9.67839 9.99222 9.98728C9.68318 10.2962 9.68318 10.7852 9.99222 11.0684L10.4558 11.5317C10.7391 11.8406 11.2284 11.8406 11.5374 11.5317Z" fill="#F1A444"/>
<path d="M5.97473 12.0981V12.7417C5.97473 13.1793 6.33528 13.5139 6.74733 13.5139C7.18513 13.5139 7.51992 13.1535 7.51992 12.7417V12.0981C7.51992 11.6606 7.15938 11.3259 6.74733 11.3259C6.33528 11.3259 5.97473 11.6606 5.97473 12.0981Z" fill="#F1A444"/>
<path d="M2.44653 9.98743L1.98297 10.4508C1.67393 10.7596 1.67393 11.2487 1.98297 11.5576C2.29201 11.8665 2.78132 11.8665 3.09035 11.5576L3.52816 11.0685C3.8372 10.7597 3.8372 10.2706 3.52816 9.96169C3.24487 9.67854 2.72981 9.67854 2.44653 9.98743Z" fill="#F1A444"/>
<path d="M0.772595 5.97192C0.360544 5.97192 0 6.33229 0 6.76988C0 7.20748 0.360544 7.5421 0.772595 7.5421H1.41642C1.85423 7.5421 2.18902 7.18173 2.18902 6.76988C2.18902 6.33229 1.82847 5.99766 1.41642 5.99766H0.772595V5.97192Z" fill="#F1A444"/>
<path d="M3.09035 1.98191C2.78132 1.67302 2.29201 1.67302 1.98297 1.98191C1.67393 2.2908 1.67393 2.77987 1.98297 3.08876L2.44653 3.55209C2.75556 3.86098 3.24487 3.86098 3.55391 3.55209C3.86295 3.2432 3.86295 2.75413 3.55391 2.44524L3.09035 1.98191Z" fill="#F1A444"/>
<path d="M33.3503 32.8965V40.7731C33.3503 41.2107 33.7109 41.5453 34.1229 41.5453H42.0292C42.467 41.5453 42.8018 41.185 42.8018 40.7731V32.8965C42.8018 32.4589 42.467 32.1243 42.0292 32.1243H34.1229C33.6851 32.1243 33.3503 32.4846 33.3503 32.8965ZM34.8955 33.6944H41.2308V40.0266H34.8955V33.6944Z" fill="#F1A444"/>
</g>
<defs>
<clipPath id="clip0_2_241">
<rect width="53" height="53" fill="white"/>
</clipPath>
</defs>
</svg>
