<svg width="55" height="55" viewBox="0 0 55 55" fill="none" xmlns="http://www.w3.org/2000/svg">
<path d="M29.9609 26.9217L27.9438 25.9266L28.9389 23.9095C29.3423 23.1027 29.0196 22.1344 28.2127 21.7579C27.4059 21.3545 26.4376 21.6772 26.0611 22.4841L24.3398 25.9266C23.9364 26.7335 24.2592 27.7017 25.066 28.0782L27.0831 29.0733L26.088 31.0904C25.6846 31.8973 26.0073 32.8655 26.8142 33.242C27.621 33.6454 28.5892 33.3227 28.9658 32.5159L30.687 29.0733C31.0636 28.2934 30.7408 27.3251 29.9609 26.9217Z" fill="#F1A444"/>
<path d="M27.5134 12.0758C19.0147 12.0758 12.1027 18.9878 12.1027 27.4866C12.1027 35.9853 19.0147 42.8973 27.5134 42.8973C36.0122 42.8973 42.9242 35.9853 42.9242 27.4866C42.9242 18.9878 36.0122 12.0758 27.5134 12.0758ZM27.5134 39.6968C20.7897 39.6968 15.3301 34.2372 15.3301 27.5135C15.3301 20.7897 20.7897 15.3301 27.5134 15.3301C34.2372 15.3301 39.6968 20.7897 39.6968 27.5135C39.6968 34.2372 34.2372 39.6968 27.5134 39.6968Z" fill="#F1A444"/>
<path d="M27.5134 6.66993C28.401 6.66993 29.1271 5.94376 29.1271 5.05623V1.61369C29.1271 0.726161 28.401 0 27.5134 0C26.6259 0 25.8997 0.726161 25.8997 1.61369V5.05623C25.8997 5.94376 26.599 6.66993 27.5134 6.66993Z" fill="#F1A444"/>
<path d="M27.5134 48.3301C26.6259 48.3301 25.8997 49.0562 25.8997 49.9438V53.3863C25.8997 54.2738 26.6259 55 27.5134 55C28.401 55 29.1271 54.2738 29.1271 53.3863V49.9438C29.1002 49.0562 28.401 48.3301 27.5134 48.3301Z" fill="#F1A444"/>
<path d="M53.3863 25.8998H49.9438C49.0562 25.8998 48.3301 26.6259 48.3301 27.5135C48.3301 28.401 49.0562 29.1272 49.9438 29.1272H53.3863C54.2738 29.1272 55 28.401 55 27.5135C55 26.599 54.2738 25.8998 53.3863 25.8998Z" fill="#F1A444"/>
<path d="M5.05623 25.8998H1.61369C0.726161 25.8998 0 26.6259 0 27.5135C0 28.401 0.726161 29.1272 1.61369 29.1272H5.05623C5.94376 29.1272 6.66993 28.401 6.66993 27.5135C6.66993 26.599 5.94376 25.8998 5.05623 25.8998Z" fill="#F1A444"/>
<path d="M44.6724 8.04157L42.2249 10.489C41.6063 11.1076 41.6063 12.1296 42.2249 12.7751C42.8435 13.3937 43.8655 13.3937 44.511 12.7751L46.9584 10.3276C47.577 9.70905 47.577 8.68705 46.9584 8.04157C46.3129 7.42299 45.2909 7.42299 44.6724 8.04157Z" fill="#F1A444"/>
<path d="M10.489 42.2249L8.04157 44.6724C7.42299 45.2909 7.42299 46.3129 8.04157 46.9584C8.36431 47.2812 8.76773 47.4425 9.17116 47.4425C9.57458 47.4425 10.0049 47.2812 10.3007 46.9584L12.7482 44.511C13.3668 43.8924 13.3668 42.8704 12.7482 42.2249C12.1565 41.6063 11.1345 41.6063 10.489 42.2249Z" fill="#F1A444"/>
<path d="M44.511 42.2249C43.8924 41.6063 42.8704 41.6063 42.2249 42.2249C41.6063 42.8435 41.6063 43.8655 42.2249 44.511L44.6724 46.9584C44.9951 47.2812 45.3985 47.4425 45.8019 47.4425C46.2054 47.4425 46.6357 47.2812 46.9315 46.9584C47.5501 46.3398 47.5501 45.3178 46.9315 44.6724L44.511 42.2249Z" fill="#F1A444"/>
<path d="M10.489 12.7751C11.1076 13.3937 12.1296 13.3937 12.7751 12.7751C13.3937 12.1565 13.3937 11.1345 12.7751 10.489L10.3276 8.04157C9.70905 7.42299 8.68705 7.42299 8.04157 8.04157C7.42299 8.66015 7.42299 9.68216 8.04157 10.3276L10.489 12.7751Z" fill="#F1A444"/>
</svg>
