<svg width="55" height="55" viewBox="0 0 55 55" fill="none" xmlns="http://www.w3.org/2000/svg">
<path d="M50.0418 11.7222V6.03626C50.0418 5.6051 49.7723 5.20088 49.3681 5.0392C48.9639 4.87751 48.5058 4.95835 48.2094 5.28172L46.1883 7.30279C41.0683 2.58697 34.493 0 27.5136 0C20.1569 0 13.2584 2.85644 8.05748 8.05732C3.39555 12.6923 0.566056 18.8633 0.0809999 25.4116C-0.404056 31.7712 1.34754 38.1039 4.95851 43.2778V48.9637C4.95851 49.3949 5.22799 49.7991 5.6322 49.9608C6.03641 50.1225 6.49452 50.0416 6.79095 49.7183L8.81201 47.6972C13.9051 52.413 20.5073 55 27.4867 55C34.8434 55 41.7419 52.1436 46.9428 46.9427C51.5778 42.3077 54.4342 36.1367 54.9193 29.5884C55.4044 23.2558 53.6797 16.9231 50.0418 11.7222ZM9.56655 9.56639C19.4563 -0.323371 35.544 -0.323371 45.4068 9.56639C45.838 9.99755 46.5117 9.99755 46.9159 9.56639L47.859 8.62322V14.6325H41.8497L42.8199 13.6624C43.0354 13.4738 43.1702 13.2043 43.1702 12.9079C43.1702 12.6115 43.0624 12.342 42.8468 12.1534C34.3853 3.69182 20.6151 3.69182 12.1535 12.1534C8.54254 15.7913 6.30589 20.5879 5.87473 25.708C5.52441 30.0735 6.49452 34.4659 8.62338 38.2386H6.03641C5.49746 38.2386 5.03935 38.6428 4.95851 39.1818C-0.0806856 29.4806 1.61701 17.5429 9.56655 9.56639ZM45.4338 45.4336C35.544 55.3234 19.4563 55.3234 9.59349 45.4336C9.16233 45.0025 8.48864 45.0025 8.08443 45.4336L7.14126 46.3768V40.3675H13.1506L12.1805 41.3376C11.9918 41.5262 11.8571 41.8226 11.8571 42.0921C11.8571 42.3616 11.9649 42.658 12.1805 42.8466C15.6567 46.3229 20.2378 48.5326 25.1153 49.0715C29.912 49.6105 34.7895 48.5056 38.8855 45.9995C39.3975 45.6761 39.5592 45.0294 39.2358 44.5174C38.9125 44.0054 38.2657 43.8437 37.7537 44.1671C30.3162 48.7212 20.9115 47.8319 14.471 42.0652L16.4921 40.0441C16.7885 39.7477 16.8963 39.2626 16.7346 38.8853C16.5729 38.5081 16.1687 38.2117 15.7375 38.2117H11.1565C6.06336 30.4777 7.08737 20.2376 13.6895 13.6624C21.0462 6.30573 32.8762 6.03626 40.5563 12.9079L38.5352 14.9559C38.2388 15.2523 38.131 15.7374 38.2927 16.1146C38.4543 16.5189 38.8586 16.7883 39.2897 16.7883H43.8439C47.9938 23.0941 48.1285 31.2592 44.1672 37.7536C43.8439 38.2656 44.0055 38.9123 44.5175 39.2357C44.7062 39.3435 44.8948 39.3974 45.0834 39.3974C45.4338 39.3974 45.7841 39.2087 45.9997 38.8853C48.2094 35.3013 49.3142 31.1514 49.2064 26.9206C49.0986 23.3366 48.1285 19.8873 46.3769 16.8153H48.9639C49.5028 16.8153 49.961 16.4111 50.0418 15.8721C55.081 25.5194 53.3833 37.4841 45.4338 45.4336Z" fill="#F1A444"/>
<path d="M42.0921 41.0142C41.7957 41.0142 41.5262 41.122 41.3376 41.3375C41.1489 41.5262 41.0142 41.8226 41.0142 42.0921C41.0142 42.3615 41.122 42.658 41.3376 42.8466C41.5262 43.0352 41.8226 43.17 42.0921 43.17C42.3616 43.17 42.658 43.0622 42.8466 42.8466C43.0353 42.658 43.17 42.3615 43.17 42.0921C43.17 41.7956 43.0622 41.5262 42.8466 41.3375C42.658 41.122 42.3616 41.0142 42.0921 41.0142Z" fill="#F1A444"/>
<path d="M34.1695 24.5761H30.4508V16.2763C30.4508 15.7912 30.1274 15.387 29.6962 15.2523C29.2381 15.1175 28.7531 15.3062 28.4836 15.6834L19.9412 28.753C19.7256 29.0764 19.6987 29.5075 19.8873 29.8579C20.076 30.2082 20.4263 30.4238 20.8305 30.4238H24.5493V38.7236C24.5493 39.2087 24.8726 39.6129 25.3038 39.7476C25.4116 39.7746 25.5194 39.8015 25.6002 39.8015C25.9505 39.8015 26.3008 39.6129 26.4895 39.3165L35.0319 26.2469C35.2474 25.9235 35.2744 25.4924 35.0858 25.142C34.951 24.7917 34.5738 24.5761 34.1695 24.5761ZM26.7051 35.1126V29.3189C26.7051 28.7261 26.22 28.241 25.6272 28.241H22.8246L28.3219 19.8603V25.6271C28.3219 26.2199 28.807 26.705 29.3998 26.705H32.2024L26.7051 35.1126Z" fill="#F1A444"/>
</svg>
