<svg width="30" height="29" viewBox="0 0 30 29" fill="none" xmlns="http://www.w3.org/2000/svg">
<path d="M6.71518 29H0.495536V9.63818H6.71518V29ZM3.60201 6.99705C1.61317 6.99705 0 5.40461 0 3.48202C1.42353e-08 2.55853 0.379496 1.67287 1.055 1.01986C1.73051 0.366855 2.6467 0 3.60201 0C4.55732 0 5.47351 0.366855 6.14901 1.01986C6.82452 1.67287 7.20402 2.55853 7.20402 3.48202C7.20402 5.40461 5.59018 6.99705 3.60201 6.99705ZM29.9933 29H23.7871V19.5748C23.7871 17.3285 23.7402 14.4479 20.5533 14.4479C17.3196 14.4479 16.8241 16.8883 16.8241 19.413V29H10.6112V9.63818H16.5763V12.2793H16.6634C17.4937 10.7581 19.5221 9.15268 22.5482 9.15268C28.8429 9.15268 30 13.1597 30 18.3643V29H29.9933Z" fill="white"/>
</svg>
