<svg width="53" height="64" viewBox="0 0 53 64" fill="none" xmlns="http://www.w3.org/2000/svg">
<g clip-path="url(#clip0_2_216)">
<path d="M50.6595 40.7957L45.3934 21.0406C45.0546 19.755 43.8844 18.8456 42.5909 18.8456H34.6148C34.0912 14.7065 30.6421 11.5081 26.4846 11.5081C22.3271 11.5081 18.878 14.7065 18.3852 18.8456H10.4399C9.11563 18.8456 7.97617 19.755 7.63742 21.0406L2.37129 40.7957C2.12492 41.705 2.3097 42.6457 2.86403 43.3669C3.41836 44.1195 4.24985 44.5272 5.17373 44.5272H22.05V49.2621H21.588C18.8164 49.2621 16.5991 51.5512 16.5991 54.342V55.7844C16.5991 56.3175 17.0302 56.7878 17.5845 56.7878H22.1732C22.6967 56.7878 23.1586 56.3488 23.1586 55.7844C23.1586 55.2513 22.7275 54.781 22.1732 54.781H18.5392V54.342C18.5392 52.6173 19.925 51.2376 21.588 51.2376H31.3812C33.075 51.2376 34.43 52.6487 34.43 54.342V54.781H30.8576C30.3341 54.781 29.8722 55.22 29.8722 55.7844C29.8722 56.3175 30.3033 56.7878 30.8576 56.7878H35.4155C35.939 56.7878 36.4009 56.3488 36.4009 55.7844V54.342C36.4009 51.5198 34.1528 49.2621 31.412 49.2621H30.9808V44.5272H47.8571C48.7809 44.5272 49.6124 44.0882 50.1668 43.3669C50.7211 42.6144 50.9059 41.6737 50.6595 40.7957ZM27.4701 42.5517V36.6252H36.5549L37.3556 42.5517H27.4701ZM15.6444 42.5517L16.4451 36.6252H25.5299V42.5517H15.6444ZM7.57582 28.7231H15.5212L14.7205 34.6497H6.00522L7.57582 28.7231ZM17.4922 28.7231H25.5299V34.6497H16.6915L17.4922 28.7231ZM25.5299 20.8211V26.7476H17.7693L18.57 20.8211H25.5299ZM34.43 20.8211L35.2307 26.7476H27.4701V20.8211H34.43ZM27.4701 34.6497V28.7231H35.5078L36.3085 34.6497H27.4701ZM37.448 28.7231H45.4242L46.9948 34.6497H38.2179L37.448 28.7231ZM43.5148 21.5424L44.9006 26.7476H37.1708L36.3701 20.8211H42.5601C43.0221 20.8211 43.3916 21.1034 43.5148 21.5424ZM26.4846 13.4836C29.595 13.4836 32.1511 15.804 32.613 18.8143H20.3562C20.8181 15.804 23.405 13.4836 26.4846 13.4836ZM9.48518 21.5424C9.60836 21.1034 9.97792 20.8211 10.4091 20.8211H16.5683L15.7984 26.7476H8.09936L9.48518 21.5424ZM4.40383 42.1754C4.21905 41.9245 4.15746 41.6109 4.24985 41.3287L5.51249 36.6565H14.4741L13.6734 42.583H5.17373C4.86577 42.5517 4.58861 42.4262 4.40383 42.1754ZM29.0099 49.2621H23.9593V44.5272H29.0099V49.2621ZM48.627 42.1754C48.4422 42.4262 48.165 42.5517 47.8571 42.5517H39.2958L38.4951 36.6252H47.5183L48.7809 41.2974C48.8733 41.6109 48.8117 41.9245 48.627 42.1754Z" fill="#F1A444"/>
<path d="M26.4846 9.53246C27.0082 9.53246 27.4701 9.09346 27.4701 8.52903V7.18068C27.4701 6.6476 27.039 6.17725 26.4846 6.17725C25.9611 6.17725 25.4991 6.61625 25.4991 7.18068V8.56039C25.5299 9.09346 25.9611 9.53246 26.4846 9.53246Z" fill="#F1A444"/>
<path d="M34.3068 12.8249C34.5532 12.8249 34.7996 12.7308 34.9843 12.5427L37.1709 10.3163C37.5404 9.94005 37.5404 9.3129 37.1709 8.90526C36.8013 8.52898 36.1854 8.52898 35.785 8.90526L33.5985 11.1316C33.229 11.5079 33.229 12.1351 33.5985 12.5427C33.8141 12.7308 34.0605 12.8249 34.3068 12.8249Z" fill="#F1A444"/>
<path d="M17.9849 12.5428C18.1697 12.731 18.416 12.825 18.6624 12.825C18.9088 12.825 19.1551 12.731 19.3399 12.5428C19.7095 12.1665 19.7095 11.5394 19.3399 11.1318L17.1842 8.93676C16.8146 8.56047 16.1987 8.56047 15.7984 8.93676C15.4288 9.31304 15.4288 9.94019 15.7984 10.3478L17.9849 12.5428Z" fill="#F1A444"/>
<path d="M26.5154 54.8123C26.269 54.8123 26.0226 54.9063 25.8379 55.0945C25.6531 55.2826 25.5607 55.5335 25.5607 55.7843C25.5607 56.0352 25.6531 56.286 25.8379 56.4742C26.0226 56.6623 26.269 56.7564 26.5154 56.7564C26.7617 56.7564 27.0081 56.6623 27.1929 56.4742C27.3777 56.286 27.4701 56.0352 27.4701 55.7843C27.4701 55.5335 27.3777 55.2826 27.1929 55.0945C27.0081 54.9063 26.7617 54.8123 26.5154 54.8123Z" fill="#F1A444"/>
<path d="M12.2262 10.4106C11.8258 10.0029 11.1791 10.0029 10.8096 10.4106L7.26801 14.048V1.03479C7.26801 0.470358 6.80607 0 6.25174 0C5.69741 0 5.26627 0.470358 5.26627 1.03479V14.048L1.72472 10.4419C1.32437 10.0343 0.677657 10.0343 0.308105 10.4106C-0.0922442 10.8182 -0.0922442 11.4767 0.308105 11.853L5.54343 17.2464C5.94378 17.6541 6.5905 17.6541 6.96005 17.2464L12.2262 11.8844C12.6265 11.4767 12.6265 10.8182 12.2262 10.4106Z" fill="#F1A444"/>
<path d="M52.692 56.8819C52.2917 56.4742 51.645 56.4742 51.2754 56.8819L47.7647 60.488V47.4747C47.7647 46.9103 47.3027 46.4399 46.7484 46.4399C46.1941 46.4399 45.7321 46.9103 45.7321 47.4747V60.488L42.2214 56.8819C41.821 56.4742 41.1743 56.4742 40.8047 56.8819C40.4044 57.2895 40.4044 57.948 40.8047 58.3243L46.0709 63.6864C46.4712 64.094 47.1179 64.094 47.4875 63.6864L52.7536 58.3243C53.0924 57.9167 53.0924 57.2895 52.692 56.8819Z" fill="#F1A444"/>
</g>
<defs>
<clipPath id="clip0_2_216">
<rect width="53" height="64" fill="white"/>
</clipPath>
</defs>
</svg>
