<svg width="242" height="49" viewBox="0 0 242 49" fill="none" xmlns="http://www.w3.org/2000/svg">
<g clip-path="url(#clip0_4_496)">
<path d="M11.0355 47.5416H-0.0141602V7.30605C4.0884 3.8975 12.1944 3.3481e-06 22.1561 3.3481e-06C37.0959 3.3481e-06 43.6407 8.57507 43.6407 19.1936V47.5416H32.5258V21.8221C32.5258 13.3431 28.4261 10.1324 21.2948 10.1324C16.9996 10.1324 13.1917 11.3986 11.0412 12.6761L11.0355 47.5416ZM209.383 12.6619C211.534 11.3957 215.333 10.1182 219.64 10.1182C226.768 10.1182 230.868 13.3318 230.868 21.8079V47.5275H242.003V19.1794C242.003 8.56094 235.458 -0.0141335 220.518 -0.0141335C210.556 -0.0141335 202.451 3.88337 198.351 7.29192V47.5275H209.383V12.6619ZM188.777 42.474C184.873 45.583 178.815 49.0028 169.539 49.0028C155.656 49.0028 145.712 39.8455 145.712 24.7445C145.712 10.4235 155.77 0.0989178 168.944 0.0989178C181.348 0.0989178 190.137 8.5779 190.137 20.9459C190.15 23.1274 190.019 25.3074 189.746 27.4719H157.039C157.917 35.0719 162.606 39.7466 170.321 39.7466C177.059 39.7466 180.966 37.1181 183.992 34.9729L188.777 42.474ZM157.138 20.1658H179.306C179.306 14.711 176.472 9.1573 168.953 9.0612C162.119 9.0612 157.917 13.8349 157.138 20.1658ZM110.514 47.3466L121.099 31.1744L132.353 47.3466H145.026L128.131 24.2499L143.561 2.1367H131.316L121.773 17.3423L111.494 2.14518H98.9317L114.753 24.1594L98.3452 47.3353L110.514 47.3466ZM94.6308 42.474C90.7266 45.583 84.6719 49.0028 75.393 49.0028C61.527 49.0028 51.5653 39.8455 51.5653 24.7445C51.5653 10.4235 61.6234 0.0989178 74.798 0.0989178C87.202 0.0989178 95.9908 8.5779 95.9908 20.9459C96.0046 23.1274 95.874 25.3075 95.5998 27.4719H62.8927C63.771 35.0719 68.46 39.7466 76.175 39.7466C82.9125 39.7466 86.8195 37.1181 89.8455 34.9729L94.6308 42.474ZM62.9918 20.1658H85.1593C85.1593 14.711 82.326 9.1573 74.8065 9.0612C67.9727 9.0612 63.771 13.8349 62.9918 20.1658Z" fill="white"/>
</g>
<defs>
<clipPath id="clip0_4_496">
<rect width="242" height="49" fill="white"/>
</clipPath>
</defs>
</svg>
