<svg width="55" height="54" viewBox="0 0 55 54" fill="none" xmlns="http://www.w3.org/2000/svg">
<g clip-path="url(#clip0_2_231)">
<path d="M43.9893 18.4856C48.0417 18.4856 51.3209 15.2282 51.3209 11.2027C51.3209 7.17716 48.0417 3.91968 43.9893 3.91968C39.937 3.91968 36.6578 7.17716 36.6578 11.2027C36.6844 15.2282 39.9636 18.4856 43.9893 18.4856ZM49.508 11.2027C49.508 13.8775 47.5618 16.1286 44.9224 16.5788V15.3606C45.1091 15.3076 45.269 15.2546 45.429 15.1487C46.602 14.5661 47.0819 13.136 46.4954 11.9442C46.2555 11.494 45.8822 11.0967 45.429 10.8849L43.4028 9.87848C43.1362 9.74606 43.0029 9.40178 43.1362 9.11046C43.1895 9.00452 43.2695 8.92507 43.4028 8.84562C43.7761 8.66024 44.2293 8.66024 44.6025 8.84562L45.429 9.24288C45.8822 9.48123 46.4421 9.29584 46.6554 8.84562C46.8953 8.3954 46.7087 7.83925 46.2555 7.62738L45.429 7.23012C45.269 7.15067 45.1091 7.07122 44.9224 7.01826V5.80001C47.5618 6.25023 49.508 8.52782 49.508 11.2027ZM43.0829 5.80001V7.04474C42.8963 7.09771 42.7363 7.15067 42.5763 7.25661C41.4033 7.83925 40.9234 9.26936 41.5099 10.4611C41.7499 10.9113 42.1231 11.3086 42.5763 11.5205L44.6025 12.5268C44.8691 12.6593 45.0024 13.0035 44.8691 13.2949C44.8158 13.4008 44.7358 13.4802 44.6025 13.5597C44.2293 13.7451 43.7761 13.7451 43.4028 13.5597L42.5763 13.1624C42.1231 12.9506 41.5633 13.136 41.35 13.5862C41.1367 14.0364 41.3233 14.5661 41.7499 14.8044L42.5763 15.2017C42.7363 15.2811 42.8963 15.3606 43.0829 15.4135V16.6583C40.0969 16.1551 38.0708 13.3478 38.5773 10.3552C38.9772 7.99815 40.7634 6.19726 43.0829 5.80001Z" fill="#F1A444"/>
<path d="M28.4197 39.4341H21.9946C21.4881 39.4341 21.0882 39.8313 21.0882 40.3345V47.6175C21.0882 48.1207 21.4881 48.518 21.9946 48.518H28.4197C28.9263 48.518 29.3262 48.1207 29.3262 47.6175V40.3345C29.3262 39.8313 28.9263 39.4341 28.4197 39.4341ZM27.5133 41.2614V43.0888H22.9277V41.2614H27.5133ZM22.9277 46.7171V44.8897H27.5133V46.7171H22.9277Z" fill="#F1A444"/>
<path d="M16.5027 39.4341H10.0776C9.57101 39.4341 9.17111 39.8313 9.17111 40.3345V47.6175C9.17111 48.1207 9.57101 48.518 10.0776 48.518H16.5027C17.0092 48.518 17.4091 48.1207 17.4091 47.6175V40.3345C17.4091 39.8313 17.0092 39.4341 16.5027 39.4341ZM15.5962 41.2614V43.0888H11.0107V41.2614H15.5962ZM11.0107 46.7171V44.8897H15.5962V46.7171H11.0107Z" fill="#F1A444"/>
<path d="M51.3476 52.1726V34.8788C51.3476 34.6934 51.2942 34.4816 51.1609 34.3227L42.9229 23.3849C42.763 23.1466 42.4697 23.0142 42.1764 23.0142H31.5657L34.8449 19.7567V21.2133H36.6844V17.585C36.6844 17.0818 36.2845 16.6846 35.778 16.6846H32.0989V18.512H33.5652L29.3262 22.6699L21.1682 14.5659C23.0344 10.9906 21.6214 6.59435 18.049 4.7405C14.4765 2.88665 10.0242 4.2638 8.15802 7.83908C7.62482 8.87194 7.33156 10.0372 7.33156 11.2025C7.33156 11.3084 7.33156 11.4144 7.33156 11.5203C6.02521 11.9705 4.93214 12.9239 4.29229 14.1422C2.37276 14.8043 1.35967 16.87 2.05284 18.7768C2.55938 20.2334 3.94571 21.2133 5.51866 21.2133H12.8502C14.6098 21.2133 16.1028 19.9686 16.4493 18.2736C17.8623 17.9293 19.142 17.1613 20.1285 16.0755L27.1401 23.0407H12.8236C12.5303 23.0407 12.2637 23.1731 12.0771 23.4114L3.83907 34.3491C3.73243 34.508 3.65245 34.6934 3.65245 34.9053V52.1991H0V54.0264H55V52.1726H51.3476ZM12.8236 19.3859H5.492C4.47891 19.3859 3.65245 18.5649 3.65245 17.5586C3.65245 16.6846 4.26563 15.9431 5.11876 15.7842C5.41202 15.7312 5.65196 15.5193 5.78526 15.2545C6.55841 13.4006 8.71789 12.5267 10.5841 13.2947C11.4639 13.6655 12.1837 14.354 12.557 15.2545C12.6636 15.5193 12.9302 15.7312 13.2235 15.7842C14.2099 15.996 14.8497 16.9494 14.6365 17.9293C14.4498 18.7768 13.7033 19.3859 12.8236 19.3859ZM16.316 16.4198C15.9428 15.3604 15.1163 14.5129 14.0499 14.1422C13.0902 12.3413 11.2239 11.2025 9.17111 11.2025C9.17111 8.18337 11.6505 5.74688 14.6898 5.74688C17.729 5.74688 20.1818 8.20985 20.1551 11.229C20.1551 11.8911 20.0218 12.5532 19.7819 13.1888L16.2361 9.63997L14.9297 10.9377L18.8221 14.8043C18.1556 15.5458 17.2758 16.102 16.316 16.4198ZM48.5749 33.9519H35.7513L42.1764 25.4507L48.5749 33.9519ZM28.4198 33.9519L29.8061 32.1245H34.8449L33.4586 33.9519H28.4198ZM33.0053 24.868L31.619 26.6954H26.5802L27.9666 24.868H33.0053ZM36.2046 30.3236H31.1658L32.5521 28.4963H37.5909L36.2046 30.3236ZM28.873 30.3236H23.8342L25.2206 28.4963H30.2593L28.873 30.3236ZM38.9506 26.6689H33.9118L35.2981 24.8415H40.3369L38.9506 26.6689ZM24.2874 26.6689H19.2487L20.635 24.8415H25.6738L24.2874 26.6689ZM22.9278 28.4963L21.5414 30.3236H16.5027L17.889 28.4963H22.9278ZM14.2099 30.3236H9.17111L10.5574 28.4963H15.5962L14.2099 30.3236ZM12.8236 32.151L11.4639 33.9519H6.42511L7.81144 32.1245H12.8236V32.151ZM15.1163 32.151H20.1551L18.7688 33.9784H13.7567L15.1163 32.151ZM22.4479 32.151H27.4867L26.127 33.9519H21.0882L22.4479 32.151ZM13.3034 24.868H18.3422L16.9559 26.6954H11.9171L13.3034 24.868ZM5.492 35.7793H33.0053V52.1726H5.492V35.7793ZM44.9224 48.5443H39.4304V41.2613H44.9224V48.5443ZM38.4973 52.1726V50.3452H45.8289V52.1726H38.4973ZM47.6684 52.1726V49.4448C47.6684 48.9416 47.2685 48.5443 46.762 48.5443V40.3609C46.762 39.8577 46.3621 39.4605 45.8556 39.4605H38.524C38.0174 39.4605 37.6175 39.8577 37.6175 40.3609V48.5443C37.111 48.5443 36.7111 48.9416 36.7111 49.4448V52.1726H34.8715V35.7793H49.5347V52.1726H47.6684Z" fill="#F1A444"/>
<path d="M9.01115 0.74154L10.6907 0L11.8105 2.48946L10.1309 3.231L9.01115 0.74154Z" fill="#F1A444"/>
<path d="M2.71938 10.8319L2.906 9.03101L5.652 9.32232L5.43872 11.1232L2.71938 10.8319Z" fill="#F1A444"/>
<path d="M23.6743 13.0829L23.8609 11.282L26.6069 11.5733L26.4203 13.3742L23.6743 13.0829Z" fill="#F1A444"/>
<path d="M19.3286 3.31044L20.9549 1.1123L22.4479 2.19813L20.8216 4.36978L19.3286 3.31044Z" fill="#F1A444"/>
</g>
<defs>
<clipPath id="clip0_2_231">
<rect width="55" height="54" fill="white"/>
</clipPath>
</defs>
</svg>
