<svg width="55" height="60" viewBox="0 0 55 60" fill="none" xmlns="http://www.w3.org/2000/svg">
<path d="M42.9807 18.7941C45.8382 18.7941 48.136 16.4706 48.136 13.6471C48.136 10.8235 45.8088 8.5 42.9807 8.5C40.1526 8.5 37.8254 10.8235 37.8254 13.6471C37.8254 16.4706 40.1232 18.7941 42.9807 18.7941ZM42.9807 10.2059C44.8661 10.2059 46.4274 11.7353 46.4274 13.6471C46.4274 15.5588 44.8955 17.0882 42.9807 17.0882C41.0659 17.0882 39.534 15.5588 39.534 13.6471C39.534 11.7353 41.0659 10.2059 42.9807 10.2059Z" fill="#F1A444"/>
<path d="M42.1264 5.05884H43.835V6.76472H42.1264V5.05884Z" fill="#F1A444"/>
<path d="M42.1264 20.5H43.835V22.2059H42.1264V20.5Z" fill="#F1A444"/>
<path d="M36.2641 8.17634L37.4719 6.97046L38.6797 8.17634L37.4719 9.41164L36.2641 8.17634Z" fill="#F1A444"/>
<path d="M47.1933 19.1177L48.4012 17.9119L49.609 19.1177L48.4012 20.3236L47.1933 19.1177Z" fill="#F1A444"/>
<path d="M47.1933 8.17634L48.4012 6.97046L49.609 8.17634L48.4012 9.41164L47.1933 8.17634Z" fill="#F1A444"/>
<path d="M36.2641 19.1177L37.4719 17.9119L38.6797 19.1177L37.4719 20.3236L36.2641 19.1177Z" fill="#F1A444"/>
<path d="M34.3787 12.7939H36.0873V14.4998H34.3787V12.7939Z" fill="#F1A444"/>
<path d="M49.8447 12.7939H51.5533V14.4998H49.8447V12.7939Z" fill="#F1A444"/>
<path d="M54.1457 54.8529H45.5437V54C45.5437 53.0588 44.7777 52.2941 43.835 52.2941H42.9807V46.2941H54.1457C54.4108 46.2941 54.676 46.1764 54.8232 45.9411C55 45.7353 55.0295 45.4411 54.9705 45.2058L53.5271 40.0588L52.0836 34.9117L50.6401 29.7647C50.5222 29.3823 50.1982 29.147 49.8152 29.147H30.0777C29.6947 29.147 29.3412 29.4117 29.2528 29.7647L27.8093 34.9117L26.3658 40.0588L24.9223 45.2058C24.8634 45.4705 24.8929 45.7353 25.0696 45.9705C25.2464 46.1764 25.4821 46.3235 25.7472 46.3235H37.8254V52.3235H36.9711C36.0284 52.3235 35.2625 53.0882 35.2625 54.0294V54.8823H31.8157V48.0294H30.1071V54.8823H24.068V39.4411C24.068 35.647 20.9748 32.5882 17.2041 32.5882C13.4333 32.5882 10.3107 35.6176 10.3107 39.3823V54.8235H4.30102V23.5294L17.2041 12.2058L26.3364 20.2353L30.0187 23.4705L30.0777 27.3823L31.8157 27.3529L31.7568 23.9411H33.5244C33.9957 23.9411 34.3787 23.5588 34.3787 23.0882V20.5C34.3787 20.2647 34.2608 20.0294 34.0841 19.8529L17.7638 5.29407C17.4397 4.99996 16.9389 4.99996 16.6149 5.29407L0.29459 19.8823C0.117836 20.0294 0 20.2647 0 20.5V23.0882C0 23.5588 0.382967 23.9411 0.854312 23.9411H2.56294V54.8235H0.854312C0.382967 54.8529 0 55.2353 0 55.7058V59.147C0 59.6176 0.382967 60 0.854312 60H54.1457C54.617 60 55 59.6176 55 59.147V55.7058C55 55.2353 54.617 54.8529 54.1457 54.8529ZM1.70862 20.8823L17.1746 7.05878L32.6406 20.8823V22.2058H31.1676L17.7638 10.4411C17.4692 10.2058 17.0862 10.147 16.7622 10.3529C16.7622 10.3529 16.7622 10.3529 16.7327 10.3529L3.12266 22.2353H1.70862V20.8823ZM29.2823 35.9705H34.9384L34.5849 39.4117H28.3396L29.2823 35.9705ZM51.5828 39.3823H45.308L44.9545 35.9411H50.6106L51.5828 39.3823ZM42.6861 30.8235L43.0396 34.2647H36.8532L37.2067 30.8235H42.6861ZM36.6765 35.9705H43.1869L43.5404 39.4117H36.323L36.6765 35.9705ZM45.8088 44.5294L45.4553 41.0882H52.0541L53.0262 44.5294H45.8088ZM49.1671 30.8235L50.1393 34.2647H44.7777L44.4242 30.8235H49.1671ZM30.7258 30.8235H35.4687L35.1152 34.2647H29.7536L30.7258 30.8235ZM27.8388 41.1176H34.4376L34.0841 44.5588H26.8961L27.8388 41.1176ZM36.1757 41.1176H43.7172L44.0707 44.5588H35.8222L36.1757 41.1176ZM39.534 46.2647H41.2426V52.2647H39.534V46.2647ZM36.9711 53.9705H43.835V54.8235H36.9711V53.9705ZM12.0193 39.3823C12.0193 36.5294 14.3465 34.2353 17.1746 34.2353C20.0027 34.2353 22.3299 36.5588 22.3299 39.3823V54.8235H12.0193V39.3823ZM53.2914 58.2647H1.70862V56.5588H53.2914V58.2647Z" fill="#F1A444"/>
<path d="M18.9127 44.5295H20.6213V47.9707H18.9127V44.5295Z" fill="#F1A444"/>
<path d="M22.3594 22.2352C22.3594 19.3823 20.0321 17.0881 17.2041 17.0881C14.376 17.0881 12.0193 19.3823 12.0193 22.2352V29.0881H10.3107V30.794H24.068V29.0881H22.3594V22.2352ZM17.2041 18.794C19.0894 18.794 20.6213 20.3234 20.6213 22.2352V25.6764H13.7574V22.2352C13.7574 20.3234 15.2892 18.794 17.2041 18.794ZM13.7574 29.0881V27.3823H20.6213V29.0881H13.7574Z" fill="#F1A444"/>
<path d="M17.1746 3.64706C17.7638 3.64706 18.2351 3.17647 18.2351 2.58824V1.05882C18.2646 0.470588 17.7638 0 17.1746 0C16.5854 0 16.1141 0.470588 16.1141 1.05882V2.55882C16.1141 3.17647 16.5854 3.64706 17.1746 3.64706Z" fill="#F1A444"/>
<path d="M25.8355 7.23539C26.1007 7.23539 26.3952 7.11775 26.6015 6.91186L29.0171 4.5001C29.4295 4.08834 29.4295 3.41187 29.0171 2.97069C28.6047 2.55892 27.9271 2.55892 27.4852 2.97069L25.099 5.41187C24.6866 5.82363 24.6866 6.5001 25.099 6.94128C25.3053 7.11775 25.5704 7.23539 25.8355 7.23539Z" fill="#F1A444"/>
<path d="M7.77715 6.91175C7.98337 7.11763 8.2485 7.23528 8.51363 7.23528C8.77876 7.23528 9.07335 7.11763 9.27956 6.91175C9.69199 6.49998 9.69199 5.82351 9.27956 5.38234L6.86392 2.99999C6.4515 2.58822 5.77394 2.58822 5.33206 2.99999C4.91963 3.41175 4.91963 4.08822 5.33206 4.5294L7.77715 6.91175Z" fill="#F1A444"/>
</svg>
